<?xml version="1.0" encoding="utf-8"?>
<!-- Generator: Adobe Illustrator 22.1.0, SVG Export Plug-In . SVG Version: 6.00 Build 0)  -->
<svg version="1.1" id="Layer_1" xmlns="http://www.w3.org/2000/svg" xmlns:xlink="http://www.w3.org/1999/xlink" x="0px" y="0px"
	 viewBox="0 0 1200 1200" style="enable-background:new 0 0 1200 1200;" xml:space="preserve">
<style type="text/css">
	.st0{fill:#1E72D9;}
</style>
<g>
	<path class="st0" d="M117.2-0.4h-29c2.2,1.7,4.3,3.4,6.3,5.2c15.8,14.3,23.2,31.1,21.1,47.3c-2.3,17-15.5,32.2-36.1,41.6
		c-4.5,2.1-6.8,7.1-5.5,11.9l4.9,17.1l-25.8-18.2c-1.7-1.2-3.7-1.8-5.8-1.8c-0.4,0-0.8,0-1.2,0.1c-11.7,1.4-23.8,1.3-36-0.3
		c-3.4-0.5-6.6-1-9.9-1.7v20.4c2.4,0.4,4.8,0.8,7.2,1.1c12.5,1.7,25,2,37.2,0.8l36.4,25.6c2.5,1.7,5.3,2.6,8.1,2.6
		c2.9,0,5.7-0.9,8.2-2.6c5-3.5,7.1-9.6,5.4-15.4l-7.3-25.3c22.6-12.6,37-31.6,39.9-53.2C137.9,35.6,131.6,16.4,117.2-0.4z"/>
</g>
<g>
	<path class="st0" d="M117.1,200.5c-24.5-19-57.7-30.5-93.5-32.5c-7.9-0.4-15.6-0.4-23.3,0.1v20c7.2-0.5,14.6-0.6,22.1-0.2
		c31.8,1.8,61,11.9,82.4,28.4c20.3,15.7,30.8,35.2,29.7,55c-1.2,20.8-15.5,40.3-39.4,53.6c-4.3,2.4-6.2,7.6-4.5,12.3l9.1,24.3
		L63.6,340c-1.6-0.9-3.3-1.4-5.1-1.4c-0.7,0-1.3,0.1-2,0.2c-13.7,2.8-28,3.8-42.6,2.9c-4.6-0.3-9.1-0.7-13.6-1.3v20.2
		c4.1,0.5,8.2,0.9,12.4,1.1c14.9,0.8,29.7,0,43.9-2.6l45.6,27c2.4,1.4,5,2.1,7.6,2.1c3.4,0,6.7-1.2,9.5-3.5
		c4.9-4.1,6.6-10.6,4.4-16.6L112.3,338c25.6-16.6,40.8-40.1,42.2-65.5C156,245.9,142.7,220.3,117.1,200.5z"/>
</g>
<g>
	<path class="st0" d="M141.4,495c0.3-24.3-12.7-47-36.8-64c-11.5-8.1-24.8-14.5-39.3-18.8c-14.5-4.4-30.2-6.8-46.4-7
		c-6.3-0.1-12.5,0.2-18.6,0.7V426c6-0.6,12.1-0.9,18.3-0.8c28.4,0.4,54.8,8.2,74.5,22.2c18.5,13.1,28.6,29.9,28.3,47.4
		c-0.2,18.3-12.2,36.1-32.9,48.7c-4.2,2.6-5.9,7.9-4,12.4l8,18.8l-30.7-16.5c-1.5-0.8-3.1-1.2-4.7-1.2c-0.8,0-1.6,0.1-2.4,0.3
		c-12.1,3-24.9,4.4-37.9,4.2c-5.6-0.1-11.1-0.4-16.5-1.1v20.1c5.3,0.6,10.7,0.9,16.2,1c13.4,0.2,26.5-1.1,39.2-3.9l41.6,22.4
		c2.2,1.2,4.5,1.7,6.8,1.7c3.5,0,6.9-1.3,9.6-3.8c4.6-4.2,5.9-10.5,3.5-16.2l-11-26C128.4,539.7,141.1,518,141.4,495z"/>
</g>
<g>
	<path class="st0" d="M126.2,694.9c-22.9-21.8-55.3-37-91.3-42.7c-11.6-1.9-23.3-2.7-34.6-2.5v20c10.3-0.2,20.8,0.5,31.4,2.2
		c32.1,5.1,60.7,18.4,80.7,37.5c19,18.1,27.6,39,24.4,59.1c-3.4,21-20,39.3-45.7,50.3c-4.6,1.9-7,6.9-5.8,11.7l6.8,26.1l-34.9-25.9
		c-1.7-1.3-3.8-2-6-2c-0.3,0-0.6,0-1,0c-14.2,1.4-28.9,0.9-43.6-1.5c-2.2-0.4-4.4-0.7-6.5-1.2v20.4c1.1,0.2,2.2,0.4,3.3,0.6
		c15.1,2.4,30.1,3.1,44.8,2l43.4,32.2c2.7,2,5.8,3,8.9,3c2.9,0,5.8-0.9,8.4-2.6c5.3-3.6,7.7-9.9,6.1-16.1l-8.4-32
		c27.7-14.1,45.6-36.3,49.7-61.9C160.8,744.9,150.1,717.6,126.2,694.9z"/>
</g>
<g>
	<path class="st0" d="M97.6,1055.5c18.5-17.8,27.4-39.8,24.7-61.2c-2.9-22.8-18.1-42.5-42.8-55.3c-22.4-11.6-50.4-16.4-79.3-13.5
		v20.1c25.7-2.9,50.5,1,70.1,11.1c18.7,9.7,30.1,23.9,32.2,40c2.1,16.9-6.6,34.7-24.1,49c-3.8,3.1-4.8,8.6-2.2,12.9l9,15l-29.1-10.8
		c-1.1-0.4-2.3-0.6-3.5-0.6c-1.3,0-2.5,0.2-3.7,0.7c-10.8,4.3-22.5,7.3-34.6,8.8c-4.7,0.6-9.4,1-14,1.1v20c5.5-0.1,11-0.5,16.5-1.2
		c12.5-1.6,24.5-4.5,35.9-8.7l41.4,15.4c1.6,0.6,3.3,0.9,5,0.9c4.1,0,8-1.8,10.7-5.1c3.9-4.7,4.4-11,1.3-16.2L97.6,1055.5z"/>
</g>
<g>
	<path class="st0" d="M746.6,38.1c0.1-13.5-3.6-26.5-10.7-38.5h-24.6c10.1,11.7,15.4,24.8,15.3,38.4c-0.1,20.9-13.5,41.2-36.8,55.8
		c-4.2,2.6-5.9,7.9-3.9,12.5l10.4,24.1l-37.5-19.8c-1.5-0.8-3.1-1.2-4.7-1.2c-0.8,0-1.7,0.1-2.5,0.3c-13.6,3.5-28,5.2-42.6,5.1
		c-32-0.2-61.8-8.8-84.1-24.3c-21.1-14.7-32.7-33.8-32.6-53.8c0.1-13.1,5.2-25.9,14.8-37.1h-24.5c-6.7,11.5-10.2,24.1-10.3,37
		c-0.1,26.7,14.5,51.7,41.2,70.3c25.6,17.8,59.5,27.7,95.4,27.9c15,0.1,29.8-1.5,43.9-4.8l47.1,24.8c2.2,1.2,4.6,1.8,7,1.8
		c3.6,0,7.2-1.4,10-4c4.7-4.3,6.1-10.9,3.5-16.8l-12.9-29.8C732.4,88,746.5,63.7,746.6,38.1z"/>
</g>
<g>
	<path class="st0" d="M701,326.9c22.2-16.9,34.6-39.4,34.3-62.8c-0.3-24.7-14.2-47.5-39.2-64.2c-23.8-15.9-55.1-24.4-88.1-24
		c-33,0.4-64,9.8-87.4,26.3c-24.5,17.3-37.8,40.4-37.5,65.1c0.3,24.7,14.2,47.5,39.2,64.2c23.8,15.9,55.1,24.4,88.1,24
		c13.7-0.2,27.1-1.9,39.9-5.1l43.1,21.7c2.1,1.1,4.3,1.6,6.5,1.6c3.6,0,7.2-1.4,10-4.1c4.5-4.3,5.7-10.7,3.1-16.4L701,326.9z
		 M683.1,315.1c-4.2,2.7-5.7,8-3.7,12.5l8.9,19.5l-32.3-16.3c-1.4-0.7-3-1.1-4.5-1.1c-0.9,0-1.8,0.1-2.6,0.4
		c-12.3,3.4-25.3,5.2-38.6,5.4c-29,0.4-56.2-6.9-76.7-20.6c-19.3-12.9-30-29.9-30.3-47.8c-0.2-17.9,10.1-35.2,29-48.6
		c20.1-14.2,47.1-22.2,76.1-22.6c29-0.4,56.2,7,76.7,20.6c19.3,12.9,30,29.9,30.3,47.8C715.6,283.1,703.8,301.6,683.1,315.1z"/>
</g>
<g>
	<path class="st0" d="M697.5,554.5c21.8-16,34.2-37.6,34.3-60.3c0.1-24-12.9-46.4-36.9-63.1c-22.8-15.9-52.9-24.7-85-24.9h-1.1
		c-31.6,0-61.5,8.5-84.1,23.9c-24.1,16.4-37.5,38.6-37.6,62.6c-0.2,24,12.9,46.4,36.8,63.1c22.8,15.9,53,24.7,85,24.9
		c13.2,0.1,26.2-1.3,38.6-4.2l41.2,21.8c2.1,1.1,4.4,1.7,6.7,1.7c3.5,0,6.9-1.3,9.6-3.8c4.5-4.2,5.9-10.5,3.4-16.2L697.5,554.5z
		 M679.8,542.4c-4.2,2.6-5.9,7.9-3.9,12.5l7.9,18.2l-30.2-16c-1.5-0.8-3.1-1.1-4.7-1.1c-0.8,0-1.6,0.1-2.5,0.3
		c-11.9,3-24.5,4.6-37.4,4.4c-28-0.2-54.2-7.8-73.7-21.3C517,526.6,507,510,507.1,492.8c0.1-17.2,10.4-33.6,28.9-46.2
		c19.7-13.3,45.9-20.6,73.9-20.4c28,0.2,54.2,7.8,73.6,21.3c18.4,12.8,28.4,29.3,28.3,46.6C711.7,512.2,700,529.8,679.8,542.4z"/>
</g>
<g>
	<path class="st0" d="M708.2,1049.2c24.4-17.9,38.3-42.1,38.5-67.6c0.2-26.9-14.5-52.1-41.3-70.7c-25.5-17.8-59.4-27.7-95.2-27.9
		h-1.3c-35.4,0-68.9,9.5-94.3,26.7c-27,18.3-42,43.3-42.2,70.2c-0.2,26.9,14.5,52.1,41.3,70.7c25.5,17.8,59.4,27.7,95.2,27.9
		c14.8,0.1,29.4-1.5,43.3-4.6l46.2,24.4c2.4,1.3,5,1.9,7.5,1.9c3.9,0,7.8-1.5,10.8-4.3c5.1-4.7,6.6-11.8,3.8-18.1L708.2,1049.2z
		 M688.3,1035.6c-4.7,2.9-6.6,8.9-4.4,14l8.8,20.4l-33.9-17.9c-1.6-0.8-3.4-1.3-5.2-1.3c-0.9,0-1.9,0.1-2.8,0.3
		c-13.4,3.4-27.5,5.1-41.9,5c-31.4-0.2-60.7-8.7-82.6-23.9c-20.6-14.3-31.8-32.9-31.7-52.2c0.1-19.3,11.6-37.7,32.4-51.8
		c22-14.9,51.5-23.1,82.9-22.9c31.4,0.2,60.7,8.7,82.6,23.9c20.6,14.3,31.8,32.9,31.7,52.2C724.1,1001.8,711,1021.5,688.3,1035.6z"
		/>
</g>
<g>
	<path class="st0" d="M704.6,652.8c-12.4-8.9-26.9-15.9-42.7-20.7c-15.8-4.8-32.9-7.5-50.5-7.9c-35.3-0.7-68.7,8.2-94.2,25.1
		c-26.6,17.6-41.6,41.8-42.1,68c-0.5,26.3,13.5,51,39.5,69.5c24.8,17.8,58,27.9,93.2,28.6c14.7,0.3,29.2-1.1,43-4.1l45.7,24.9
		c2.3,1.2,4.7,1.8,7.1,1.8c3.5,0,7-1.3,9.8-3.8c4.7-4.2,6.2-10.8,3.7-16.6L705,788.3c24.5-17.3,38.6-40.9,39.1-66
		C744.6,696.1,730.6,671.4,704.6,652.8z M724.1,722c-0.4,20.4-13.8,40.1-36.7,54c-4.2,2.6-6,7.8-4,12.4l9.7,23.1l-36-19.6
		c-1.5-0.8-3.1-1.2-4.8-1.2c-0.8,0-1.6,0.1-2.3,0.3c-13.4,3.2-27.4,4.7-41.8,4.5c-31.3-0.6-60.4-9.4-82-24.9
		c-20.5-14.6-31.5-33.4-31.2-52.9c0.4-19.5,12.1-37.8,33.1-51.7c22.1-14.6,51.6-22.4,82.8-21.8c31.3,0.6,60.4,9.4,81.9,24.9
		C713.4,683.7,724.5,702.5,724.1,722z"/>
</g>
<g>
	<path class="st0" d="M206.4-0.4c-3.2,5.3-2.9,11.8,1,16.6c2.8,3.6,7,5.6,11.3,5.6c1.6,0,3.2-0.3,4.8-0.8l47.1-16.2
		c12.6,5.1,26.1,8.7,40,10.8c33.6,5,66.6,0.7,93-12.2c2.5-1.2,4.9-2.5,7.2-3.8H206.4z"/>
</g>
<g>
	<path class="st0" d="M449.1,143.9c-1.6-24.8-16.7-47.1-42.7-62.6c-24.8-14.8-56.7-21.8-89.9-19.7c-33.2,2.1-64,13.1-86.7,30.9
		c-23.8,18.7-36,42.6-34.4,67.5c1.5,23.6,15.7,45.3,39.4,60.6l-10.1,27.5c-2.1,5.8-0.4,12.2,4.4,16.1c2.7,2.2,5.9,3.3,9.2,3.3
		c2.6,0,5.2-0.7,7.5-2.1l41.7-25.2c13.1,2.2,26.7,2.9,40.5,2.1c33.2-2.1,64-13.1,86.7-30.9C438.5,192.7,450.7,168.8,449.1,143.9z
		 M402.3,195.7c-19.5,15.4-46.4,24.8-75.6,26.7c-13.4,0.9-26.6,0-39.3-2.4c-2.4-0.5-5,0-7.1,1.3l-31.5,19l7.5-20.6
		c1.7-4.6-0.2-9.8-4.6-12.2c-22-12-35.3-29.7-36.5-48.7c-1.2-18.1,8.4-36,26.8-50.5c19.5-15.4,46.4-24.8,75.6-26.7
		c3.5-0.2,6.9-0.3,10.4-0.3c25.4,0,49.2,6,68,17.2c20.1,12,31.9,28.6,33,46.7C430.3,163.3,420.8,181.2,402.3,195.7z"/>
</g>
<g>
	<path class="st0" d="M414.5,334.3c-19.1-18.4-46.2-31.4-76.3-36.4c-30.2-5.1-60-1.7-84,9.6c-25.3,11.8-41.3,30.8-45.1,53.5
		c-3.6,21.4,4.5,43.7,22.2,62.2l-14.3,21.8c-3.3,5.1-3.1,11.4,0.6,16.3c2.7,3.6,6.8,5.6,11.1,5.6c1.5,0,3-0.2,4.4-0.7l42-13.6
		c11.2,4.7,23.1,8.1,35.5,10.2c30.1,5.1,60,1.7,84-9.6c25.3-11.8,41.3-30.8,45.1-53.5C443.5,376.9,434.5,353.7,414.5,334.3z
		 M420,396.3c-2.7,16-14.7,29.8-33.8,38.7c-20.4,9.5-46.1,12.3-72.3,7.9c-12-2-23.6-5.5-34.2-10.2c-1.3-0.6-2.7-0.9-4.1-0.9
		c-1,0-2.1,0.2-3.1,0.5l-29.6,9.6l9.6-14.7c2.7-4.1,2-9.7-1.7-13c-16.8-15-24.9-33.3-22-50.1c2.7-16,14.7-29.8,33.9-38.7
		c20.4-9.5,46.1-12.3,72.3-8c26.2,4.4,49.6,15.4,65.7,31.1C415.8,363.4,422.6,380.3,420,396.3z"/>
</g>
<g>
	<path class="st0" d="M449.7,599.8c-1.4-24.9-16.4-47.4-42.3-63.2c-22.2-13.6-50.3-20.8-80-20.8c-3.3,0-6.7,0.1-10.1,0.3
		c-33.4,1.8-64.4,12.6-87.3,30.2c-24,18.5-36.5,42.5-35.2,67.4c1.3,23.7,15.4,45.6,39,61.1l-10.4,27.6c-2.2,5.8-0.5,12.2,4.2,16.2
		c2.7,2.3,6,3.4,9.3,3.4c2.5,0,5.1-0.7,7.4-2.1l42.1-24.9c13.2,2.3,26.8,3.2,40.7,2.4c33.4-1.8,64.4-12.6,87.3-30.2
		C438.6,648.7,451.1,624.7,449.7,599.8z M402.4,651.4c-19.8,15.2-46.8,24.5-76.2,26.1c-13.5,0.7-26.8-0.2-39.4-2.8
		c-2.4-0.5-4.9-0.1-7.1,1.2l-31.9,18.9l7.8-20.7c1.7-4.6-0.2-9.9-4.5-12.3c-22-12.2-35.1-30.2-36.2-49.2c-1-18.2,8.7-36.1,27.4-50.5
		c19.8-15.2,46.8-24.5,76.2-26.1c29.4-1.6,57.3,4.7,78.6,17.7c20.1,12.3,31.7,29,32.7,47.2C430.8,619,421,637,402.4,651.4z"/>
</g>
<g>
	<path class="st0" d="M414,809.4c-10.7-8.8-23.4-16.1-37.4-21.5c-14-5.4-29.3-8.9-45.3-10.3c-31.9-2.8-62.8,3.2-87,16.8
		c-25.4,14.3-40.5,35.4-42.6,59.4c-2,22.6,8.3,45.3,28.5,63.3l-13.4,24.4c-3,5.4-2.2,11.8,1.9,16.4c2.8,3.1,6.6,4.8,10.6,4.8
		c1.8,0,3.7-0.4,5.5-1.1l43.1-17.8c12.1,4,24.9,6.6,38.1,7.8c31.9,2.8,62.8-3.1,87-16.8c25.4-14.3,40.5-35.4,42.7-59.4
		C447.7,851.4,436.5,828,414,809.4z M425.7,873.6c-1.5,17.2-13.1,32.7-32.6,43.7c-20.7,11.7-47.5,16.8-75.4,14.3
		c-12.8-1.1-25.2-3.8-36.8-8c-2.3-0.8-4.9-0.8-7.2,0.2l-31.6,13l9.6-17.4c2.4-4.3,1.2-9.8-2.7-12.8c-19-14.5-29-33.1-27.4-51.1
		c1.5-17.2,13.1-32.7,32.6-43.7c17.3-9.8,38.8-14.9,61.7-14.9c4.5,0,9.1,0.2,13.7,0.6c27.9,2.5,53.4,12.2,71.7,27.3
		C418.6,839.1,427.2,856.4,425.7,873.6z"/>
</g>
<g>
	<path class="st0" d="M823.4-0.4l-2.9,6.2c-2.6,5.5-1.5,11.8,2.8,16.1c2.7,2.7,6.3,4.2,9.9,4.2c2.1,0,4.2-0.5,6.2-1.5L880.1,5
		c12,3.2,24.6,5,37.4,5.4c22.4,0.6,44.1-3.1,62.9-10.7H823.4z"/>
</g>
<g>
	<path class="st0" d="M1055.9,132.2c-3.7-26.8-21.9-49.7-51.3-64.6c-21.2-10.6-46.4-16.2-72.9-16.2c-8.8,0-17.8,0.6-26.8,1.9
		c-36.1,4.9-68.8,19.4-92.2,40.6c-24.4,22.2-35.8,49.2-32.1,76c3.5,25.7,21,48.2,48.3,63l-9.1,31.8c-1.8,6.2,0.5,12.6,5.7,16.3
		c2.6,1.9,5.6,2.8,8.6,2.8c3,0,6-0.9,8.6-2.8l44.1-31.2c14.6,1.4,29.7,1.1,44.8-1c36.1-5,68.8-19.4,92.2-40.6
		C1048.2,186,1059.6,159,1055.9,132.2z M1010.4,193.4c-20.4,18.5-49.3,31.2-81.4,35.6c-14.8,2-29.4,2.2-43.6,0.5
		c-2.5-0.3-4.9,0.3-7,1.8L843,256.3l7.4-25.9c1.4-4.8-1-9.8-5.5-11.8c-25.4-11.6-41.6-30.2-44.5-51.3c-2.8-20.1,6.4-40.9,25.7-58.5
		c20.4-18.6,49.3-31.2,81.4-35.6c32.1-4.4,63.4,0,88,12.4c23.4,11.8,37.8,29.3,40.5,49.4C1038.8,155,1029.7,175.8,1010.4,193.4z"/>
</g>
<g>
	<path class="st0" d="M1039.7,364.7c-3-23.8-18.8-44.3-44.7-57.6c-19-9.8-41.8-15-65.8-15c-7.1,0-14.3,0.4-21.5,1.3
		c-31.7,4-60.6,16.3-81.3,34.7c-21.7,19.3-32.1,43.1-29.1,66.9c2.8,22.5,17.6,42.4,41.1,55.7l-7.9,26.6c-1.8,5.9,0.3,12,5.3,15.6
		c2.5,1.8,5.5,2.8,8.4,2.8c2.8,0,5.6-0.9,8.1-2.6l38.3-26.4c12.7,1.4,25.7,1.2,38.8-0.4c31.7-4,60.6-16.3,81.3-34.7
		C1032.4,412.2,1042.7,388.5,1039.7,364.7z M997.3,416.6c-17.7,15.7-42.7,26.3-70.5,29.8c-12.7,1.6-25.4,1.6-37.6,0
		c-2.4-0.3-4.9,0.3-7,1.7l-28,19.3l5.7-18.9c1.4-4.7-0.9-9.8-5.3-11.9c-21.6-10.1-35.2-26.2-37.4-44.1c-2.1-17.1,5.9-34.6,22.6-49.4
		c17.7-15.7,42.7-26.3,70.5-29.8c27.7-3.5,54.6,0.6,75.6,11.5c19.8,10.3,31.9,25.3,34,42.4C1022,384.2,1014,401.8,997.3,416.6z"/>
</g>
<g>
	<path class="st0" d="M1054.7,585.6c-4-26.6-22.4-49.2-51.8-63.6c-28.2-13.8-63.4-18.4-99.2-13.1s-68.2,20-91.1,41.4
		c-24,22.3-35,49.3-31,75.9c3.8,25.4,21.4,47.7,48.6,62l-8.6,31.6c-1.7,6.2,0.6,12.5,5.9,16.2c2.6,1.8,5.5,2.7,8.5,2.7
		c3,0,6.1-1,8.7-2.9l43.4-31.5c14.6,1.2,29.5,0.8,44.5-1.5c35.8-5.3,68.2-20,91.1-41.4C1047.6,639.2,1058.6,612.2,1054.7,585.6z
		 M1010,646.9c-20,18.6-48.6,31.5-80.4,36.3c-14.6,2.2-29.2,2.5-43.2,1c-2.5-0.3-4.9,0.4-6.9,1.9l-34.7,25.2l7-25.7
		c1.3-4.8-1.1-9.8-5.6-11.8c-25.3-11.2-41.6-29.5-44.7-50.4c-3-19.9,5.9-40.6,24.9-58.3c20-18.6,48.6-31.5,80.4-36.3
		c8.7-1.3,17.4-1.9,25.9-1.9c22.5,0,43.7,4.5,61.6,13.2c23.3,11.4,37.8,28.6,40.8,48.5C1037.9,608.5,1029,629.2,1010,646.9z"/>
</g>
<g>
	<path class="st0" d="M1007.8,799.6c-23.6-16.3-54.8-25.3-87.9-25.3h-0.3c-32.9,0-64.1,8.9-87.6,25c-24.8,17-38.5,40-38.5,64.7
		c0,23.5,12.6,45.9,35.1,62.6l-11.8,26.6c-2.5,5.7-1.2,12.1,3.3,16.4c2.8,2.6,6.3,3.9,9.8,3.9c2.3,0,4.6-0.5,6.7-1.6l43-22.3
		c12.9,3.1,26.3,4.6,40,4.6h0.3c32.9,0,64.1-8.9,87.6-25c24.8-17,38.5-40,38.5-64.7C1046.1,839.7,1032.5,816.7,1007.8,799.6z
		 M996.2,912.7c-20.3,13.9-47.4,21.5-76.3,21.5h-0.3c-13.4,0-26.4-1.7-38.8-4.9c-2.4-0.6-4.9-0.4-7.1,0.8l-32.3,16.7l8.7-19.7
		c2-4.5,0.4-9.8-3.8-12.5c-21-13.3-33-31.7-32.9-50.5c0-18,10.6-35.1,29.8-48.3c20.3-13.9,47.4-21.5,76.3-21.5h0.3
		c29.1,0.1,56.3,7.8,76.6,21.8c19.1,13.2,29.7,30.4,29.6,48.4C1026,882.4,1015.4,899.5,996.2,912.7z"/>
</g>
<g>
	<path class="st0" d="M1143.1,73.4c-15.8-14.3-23.2-31.1-21.1-47.3c1.3-9.7,6-18.7,13.7-26.4h-25.2c-4.4,7.3-7.2,15.3-8.3,23.8
		c-3.1,22.9,6.6,46,27.4,64.8c18.2,16.5,43.1,28.1,70.7,33v-20.4C1177.8,96.3,1157.7,86.7,1143.1,73.4z"/>
</g>
<g>
	<path class="st0" d="M1137.4,207c17.6-10.7,39.4-17.2,62.9-18.9v-20c-27.2,1.7-52.6,9.2-73.3,21.8c-27.7,16.8-43.8,40.8-45.2,67.3
		c-1.5,26.6,11.8,52.2,37.4,72c21.7,16.8,50.1,27.7,81.1,31.4v-20.2c-26.5-3.5-50.5-12.9-68.8-27.1c-20.3-15.7-30.8-35.2-29.7-55
		C1102.9,238.5,1115.5,220.3,1137.4,207z"/>
</g>
<g>
	<path class="st0" d="M1143.6,445.3c15.6-10.4,35.3-17.1,56.7-19.3v-20.1c-25.4,2.3-49,10.2-67.8,22.8c-24.5,16.4-38.2,38.7-38.5,63
		c-0.3,24.3,12.7,47,36.8,64c19,13.5,43.3,22.1,69.5,24.9v-20.1c-22-2.6-42.2-9.9-58-21.1c-18.5-13.1-28.6-29.9-28.3-47.4
		C1114.2,474.4,1124.7,457.9,1143.6,445.3z"/>
</g>
<g>
	<path class="st0" d="M1143.4,682.2c16.6-7.9,36.2-12.2,56.9-12.6v-20c-23.7,0.4-46.2,5.4-65.5,14.5c-29.8,14.1-48.5,36.7-52.8,63.4
		c-4.3,26.8,6.5,54,30.4,76.8c22.1,21.1,53.3,36,88,42.2v-20.4c-29.4-5.8-55.6-18.6-74.2-36.3c-19-18.1-27.6-39-24.4-59.1
		C1104.9,710.7,1119.7,693.5,1143.4,682.2z"/>
</g>
<g>
	<path class="st0" d="M1131.7,954.1c16.8-14.9,40.5-25,66.9-28.3c0.6-0.1,1.1-0.1,1.7-0.2v-20.1c-1.4,0.1-2.8,0.3-4.2,0.5
		c-30.3,3.8-57.9,15.6-77.7,33.2c-20.8,18.5-30.7,41.3-27.9,64.1c2.8,22.8,18.1,42.5,42.8,55.3c19.2,10,42.5,14.9,66.9,14.2v-20
		c-21.2,0.6-41.4-3.5-57.8-12c-18.7-9.7-30.1-23.9-32.2-40C1108.4,984.7,1115.9,968.1,1131.7,954.1z"/>
</g>
<g>
	<path class="st0" d="M107.9,1190c-9.9-8.9-21.7-16.5-34.9-22.2c-13.2-5.8-27.7-9.8-43-11.9c-10-1.3-20-1.8-29.7-1.3v20
		c8.8-0.5,17.9-0.1,27,1.1c23.4,3.2,44.7,11.6,60.9,23.9h29C114.4,1196.3,111.3,1193.1,107.9,1190z"/>
</g>
<g>
	<path class="st0" d="M705.4,1167.9c-25.6-17.8-59.5-27.7-95.4-27.9c-36-0.2-70,9.4-95.7,26.9c-13.9,9.4-24.5,20.5-31.6,32.8h24.5
		c5-5.9,11.1-11.3,18.4-16.2c22.2-15.1,51.8-23.4,83.4-23.4h1c32,0.2,61.8,8.8,84.1,24.3c6.8,4.7,12.6,9.9,17.3,15.4h24.6
		C729,1187.8,718.7,1177.1,705.4,1167.9z"/>
</g>
<g>
	<path class="st0" d="M423.4,1072.2c-21.5-20.1-51.8-33.9-85.4-38.9s-66.6-0.7-93,12.1c-27.7,13.5-45,34.7-48.8,59.8
		c-3.6,23.8,6,48.5,26.3,68.8l-16.1,25.4c0,0-0.1,0.1-0.1,0.2h204.5c23.5-13.5,38.1-33.1,41.5-55.9
		C456.2,1118.6,445.9,1093.2,423.4,1072.2z M432.7,1140.7c-2.8,18.4-16.2,34.2-37.7,44.8c-22.8,11.1-51.7,14.8-81.3,10.4
		c-13.6-2-26.6-5.7-38.7-10.9c-1.2-0.5-2.6-0.8-3.9-0.8c-1.1,0-2.2,0.2-3.2,0.5l-36.1,12.4l12.3-19.4c2.6-4.2,1.8-9.7-1.9-12.9
		c-19.4-16.7-28.8-37.4-26-56.6c2.8-18.4,16.2-34.2,37.8-44.8c22.8-11.1,51.7-14.8,81.3-10.3c29.6,4.4,56.1,16.4,74.7,33.8
		C427.3,1103.2,435.4,1122.4,432.7,1140.7z"/>
</g>
<g>
	<path class="st0" d="M1004.7,1066.2c-21.8-16-51.1-25.3-82.2-26.2c-31.2-0.9-60.9,6.7-83.6,21.3c-23.9,15.4-37.4,36.8-38.1,60.3
		c-0.7,22.1,10.6,43.5,31.2,59.9l-8.6,18h157.1c7.4-3,14.3-6.5,20.7-10.7c23.9-15.4,37.4-36.9,38.1-60.3
		C1039.9,1105.2,1027.7,1083,1004.7,1066.2z M1019.3,1128.1c-0.5,16.7-10.8,32.3-29,44.1c-19.4,12.5-45,19-72.2,18.2
		c-12.5-0.4-24.6-2.2-36.1-5.6c-2.4-0.7-4.9-0.5-7.2,0.6l-29.2,14.1l8-16.8c2.1-4.5,0.7-9.8-3.4-12.6
		c-19.2-12.9-29.9-30.3-29.4-47.8c0.5-16.7,10.8-32.3,29-44.1c18.3-11.8,42.2-18.2,67.7-18.2c1.5,0,3,0,4.5,0.1
		c27.2,0.8,52.4,8.7,71,22.3C1010.4,1095.2,1019.7,1111.4,1019.3,1128.1z"/>
</g>
<g>
	<path class="st0" d="M1145.8,1168.1c-15.8,8-27.9,18.8-35.3,31.5h25.2c5.1-5.2,11.6-9.8,19.2-13.6c13.2-6.7,28.8-10.6,45.5-11.5
		v-20C1180.5,1155.4,1161.8,1160.1,1145.8,1168.1z"/>
</g>
</svg>
