<?xml version="1.0" encoding="utf-8"?>
<!-- Generator: Adobe Illustrator 22.1.0, SVG Export Plug-In . SVG Version: 6.00 Build 0)  -->
<svg version="1.1" id="Layer_1" xmlns="http://www.w3.org/2000/svg" xmlns:xlink="http://www.w3.org/1999/xlink" x="0px" y="0px"
	 viewBox="0 0 1400 1400" style="enable-background:new 0 0 1400 1400;" xml:space="preserve">
<style type="text/css">
	.st0{fill:#1765C1;}
</style>
<g>
	<path class="st0" d="M136.7-0.4h-33.9c2.6,1.9,5,4,7.3,6.1c18.4,16.7,27.1,36.3,24.6,55.2c-2.7,19.8-18,37.5-42.1,48.6
		c-5.3,2.4-8,8.3-6.4,13.8l5.8,20l-30.1-21.2c-2-1.4-4.3-2.1-6.7-2.1c-0.5,0-0.9,0-1.4,0.1c-13.6,1.7-27.7,1.5-41.9-0.4
		c-3.9-0.5-7.8-1.2-11.6-2v23.7c2.8,0.5,5.6,1,8.4,1.3c14.6,2,29.2,2.3,43.4,0.9l42.4,29.9c2.9,2,6.2,3,9.5,3c3.3,0,6.7-1,9.5-3.1
		c5.8-4.1,8.2-11.2,6.3-18l-8.5-29.5c26.4-14.7,43.1-36.9,46.5-62.1C160.9,41.7,153.4,19.2,136.7-0.4z"/>
</g>
<g>
	<path class="st0" d="M136.5,234c-28.6-22.1-67.4-35.6-109.1-37.9c-9.2-0.5-18.2-0.5-27.1,0.1v23.4c8.4-0.6,17.1-0.7,25.8-0.2
		c37.1,2.1,71.2,13.8,96.1,33.1c23.6,18.3,36,41.1,34.7,64.2c-1.4,24.2-18.1,47-46,62.5c-5.1,2.8-7.3,8.9-5.3,14.3l10.6,28.4
		l-42.2-25c-1.8-1.1-3.9-1.6-6-1.6c-0.8,0-1.6,0.1-2.3,0.2c-16,3.2-32.7,4.4-49.7,3.4c-5.3-0.3-10.6-0.8-15.8-1.5v23.5
		c4.8,0.6,9.6,1,14.5,1.3c17.4,1,34.6,0,51.2-3l53.1,31.5c2.8,1.6,5.8,2.5,8.9,2.5c3.9,0,7.9-1.4,11.1-4.1
		c5.7-4.8,7.7-12.4,5.1-19.3l-13.2-35.3c29.8-19.3,47.6-46.7,49.3-76.4C182,286.9,166.4,257.1,136.5,234z"/>
</g>
<g>
	<path class="st0" d="M164.9,577.6c0.4-28.3-14.9-54.8-42.9-74.7c-13.4-9.5-28.9-16.9-45.9-22c-16.9-5.1-35.3-7.9-54.2-8.2
		c-7.3-0.1-14.6,0.2-21.7,0.9V497c7-0.7,14.1-1,21.4-0.9c33.1,0.4,63.9,9.6,86.9,25.8c21.6,15.3,33.3,34.9,33.1,55.3
		c-0.3,21.4-14.3,42.1-38.3,56.8c-4.9,3-6.9,9.2-4.7,14.5l9.3,22L72,651.3c-1.7-0.9-3.6-1.4-5.5-1.4c-0.9,0-1.9,0.1-2.8,0.3
		c-14.1,3.5-29,5.2-44.2,4.9c-6.5-0.1-12.9-0.5-19.2-1.3v23.5c6.2,0.7,12.5,1,18.9,1.1c15.6,0.2,31-1.3,45.7-4.6l48.5,26.1
		c2.5,1.4,5.3,2,8,2c4,0,8-1.5,11.2-4.4c5.3-4.9,6.9-12.3,4.1-18.9l-12.9-30.3C149.7,629.7,164.6,604.4,164.9,577.6z"/>
</g>
<g>
	<path class="st0" d="M147.2,810.7c-26.7-25.4-64.5-43.1-106.5-49.9c-13.6-2.2-27.1-3.1-40.4-2.9v23.3c12-0.3,24.3,0.6,36.7,2.6
		c37.4,6,70.8,21.5,94.1,43.7c22.1,21.1,32.2,45.6,28.5,68.9c-3.9,24.5-23.4,45.9-53.3,58.7c-5.3,2.3-8.2,8.1-6.7,13.7l8,30.5
		l-40.7-30.2c-2-1.5-4.5-2.3-7-2.3c-0.4,0-0.7,0-1.1,0c-16.6,1.6-33.7,1-50.8-1.7c-2.5-0.4-5.1-0.9-7.6-1.4v23.8
		c1.3,0.2,2.6,0.4,3.9,0.7c17.6,2.8,35.1,3.6,52.3,2.3l50.7,37.6c3.1,2.3,6.7,3.5,10.4,3.5c3.4,0,6.8-1,9.8-3
		c6.2-4.2,9-11.6,7.1-18.8l-9.8-37.4c32.3-16.4,53.2-42.3,58-72.2C187.6,869.1,175,837.3,147.2,810.7z"/>
</g>
<g>
	<path class="st0" d="M113.9,1231.5c21.5-20.8,32-46.4,28.9-71.4c-3.3-26.6-21.1-49.5-49.9-64.5c-26.2-13.6-58.8-19.1-92.5-15.7
		v23.5c30-3.4,59,1.2,81.7,13c21.9,11.3,35.2,27.9,37.5,46.7c2.5,19.7-7.8,40.5-28.1,57.2c-4.5,3.7-5.6,10-2.6,15l10.5,17.5
		l-34-12.6c-1.3-0.5-2.7-0.7-4.1-0.7c-1.5,0-2.9,0.3-4.3,0.8c-12.6,5-26.2,8.5-40.3,10.3c-5.5,0.7-11,1.1-16.4,1.3v23.3
		c6.4-0.2,12.8-0.6,19.2-1.4c14.5-1.8,28.6-5.2,41.8-10.1l48.3,17.9c1.9,0.7,3.9,1,5.8,1c4.7,0,9.3-2.1,12.5-5.9
		c4.5-5.4,5.1-12.9,1.5-18.9L113.9,1231.5z"/>
</g>
<g>
	<path class="st0" d="M871,44.5c0.1-15.7-4.2-30.9-12.5-44.9h-28.7c11.8,13.6,18,29,17.9,44.8c-0.1,24.4-15.8,48.1-43,65.1
		c-4.9,3.1-6.8,9.2-4.5,14.5l12.2,28.1L768.6,129c-1.7-0.9-3.6-1.3-5.4-1.3c-1,0-1.9,0.1-2.9,0.4c-15.9,4-32.6,6.1-49.7,6
		c-37.3-0.2-72.1-10.3-98.2-28.4c-24.7-17.1-38.2-39.4-38.1-62.7c0.1-15.3,6.1-30.2,17.3-43.3H563c-7.8,13.5-12,28.1-12,43.2
		c-0.2,31.2,16.9,60.3,48.1,82c29.8,20.8,69.4,32.3,111.3,32.5c17.5,0.1,34.7-1.8,51.2-5.6l54.9,29c2.6,1.4,5.4,2,8.1,2
		c4.2,0,8.4-1.6,11.7-4.7c5.5-5.1,7.1-12.8,4.1-19.6l-15.1-34.8C854.4,102.8,870.9,74.4,871,44.5z"/>
</g>
<g>
	<path class="st0" d="M817.8,381.5c25.9-19.7,40.4-46,40-73.3c-0.4-28.8-16.6-55.4-45.7-74.9c-27.7-18.5-64.2-28.5-102.7-28
		c-38.5,0.5-74.7,11.4-102,30.6c-28.6,20.2-44.1,47.2-43.7,76c0.4,28.8,16.6,55.4,45.7,74.9c27.7,18.5,64.2,28.5,102.7,28
		c15.9-0.2,31.6-2.2,46.5-5.9l50.3,25.3c2.5,1.2,5.1,1.8,7.6,1.8c4.2,0,8.4-1.6,11.6-4.7c5.2-5,6.7-12.5,3.7-19.1L817.8,381.5z
		 M796.8,367.7c-4.9,3.1-6.7,9.4-4.3,14.6l10.4,22.8l-37.7-19c-1.6-0.8-3.4-1.2-5.2-1.2c-1,0-2.1,0.1-3.1,0.4
		c-14.4,3.9-29.5,6-45,6.2c-33.8,0.4-65.6-8.1-89.5-24.1c-22.5-15-35.1-34.8-35.3-55.8c-0.3-20.9,11.8-41,33.9-56.7
		c23.4-16.6,55-25.9,88.8-26.4c33.8-0.4,65.6,8.1,89.5,24.1c22.5,15,35.1,34.9,35.3,55.8C834.8,330.4,821.1,352,796.8,367.7z"/>
</g>
<g>
	<path class="st0" d="M813.7,647c25.4-18.6,39.9-43.8,40-70.3c0.2-28-15.1-54.2-43-73.6c-26.6-18.5-61.8-28.9-99.1-29.1h-1.3
		c-36.9,0-71.7,9.9-98.2,27.8c-28.1,19.1-43.7,45-43.9,73.1c-0.2,28,15.1,54.2,43,73.6c26.6,18.5,61.8,28.8,99.1,29.1
		c15.4,0.1,30.6-1.5,45.1-4.9l48.1,25.4c2.5,1.3,5.2,2,7.9,2c4.1,0,8.1-1.5,11.3-4.5c5.3-4.9,6.8-12.3,4-18.9L813.7,647z M793,632.8
		c-4.9,3.1-6.8,9.2-4.5,14.5l9.2,21.3L762.4,650c-1.7-0.9-3.6-1.3-5.4-1.3c-1,0-1.9,0.1-2.9,0.4c-13.9,3.5-28.6,5.3-43.6,5.2
		c-32.7-0.2-63.2-9.1-85.9-24.9c-21.4-14.9-33.1-34.2-33-54.3c0.1-20.1,12.1-39.3,33.7-53.9c22.9-15.6,53.6-24,86.3-23.8
		c32.7,0.2,63.2,9.1,85.9,24.9c21.4,14.9,33.1,34.2,33,54.3C830.3,597.6,816.7,618.1,793,632.8z"/>
</g>
<g>
	<path class="st0" d="M826.2,1224.1c28.5-20.9,44.7-49.1,44.9-78.8c0.2-31.4-16.9-60.7-48.2-82.5c-29.8-20.8-69.2-32.3-111.1-32.6
		h-1.5c-41.3,0-80.4,11-110.1,31.2c-31.5,21.4-49,50.5-49.2,81.9c-0.2,31.4,16.9,60.7,48.2,82.5c29.8,20.8,69.2,32.3,111.1,32.6
		c17.3,0.1,34.3-1.7,50.5-5.4l53.9,28.5c2.8,1.5,5.8,2.2,8.8,2.2c4.6,0,9.1-1.7,12.6-5c5.9-5.5,7.7-13.8,4.5-21.1L826.2,1224.1z
		 M802.9,1208.3c-5.5,3.4-7.7,10.3-5.1,16.3l10.3,23.8l-39.5-20.9c-1.9-1-4-1.5-6.1-1.5c-1.1,0-2.2,0.1-3.2,0.4
		c-15.6,4-32.1,6-48.9,5.8c-36.6-0.2-70.8-10.1-96.3-27.9c-24-16.7-37.1-38.3-37-60.9c0.1-22.6,13.6-44,37.8-60.4
		c25.7-17.4,60.1-26.9,96.7-26.7c36.6,0.2,70.8,10.1,96.3,27.9c24,16.7,37.1,38.4,37,60.9C844.7,1168.8,829.4,1191.8,802.9,1208.3z"
		/>
</g>
<g>
	<path class="st0" d="M822,761.7c-14.5-10.4-31.4-18.5-49.8-24.2c-18.4-5.6-38.4-8.8-58.9-9.2c-41.1-0.8-80.2,9.6-109.9,29.3
		c-31.1,20.5-48.5,48.7-49.1,79.3c-0.6,30.6,15.8,59.5,46.1,81.1c29,20.7,67.6,32.6,108.8,33.3c17.2,0.3,34-1.3,50.2-4.8l53.4,29
		c2.6,1.4,5.5,2.1,8.3,2.1c4.1,0,8.2-1.5,11.5-4.5c5.5-5,7.2-12.6,4.4-19.4l-14.3-34.1c28.6-20.1,45.1-47.8,45.6-77
		C868.7,812.2,852.3,783.4,822,761.7z M844.8,842.4c-0.4,23.8-16.1,46.8-42.8,63c-4.9,3-7,9.1-4.7,14.5l11.3,27l-42-22.8
		c-1.7-0.9-3.6-1.4-5.6-1.4c-0.9,0-1.8,0.1-2.7,0.3c-15.6,3.8-32,5.5-48.7,5.2c-36.5-0.7-70.4-11-95.6-29
		c-23.9-17.1-36.8-39-36.4-61.7c0.4-22.7,14.1-44.1,38.6-60.3c25.8-17.1,60.2-26.1,96.6-25.4c36.5,0.7,70.4,11,95.6,29
		C832.3,797.7,845.2,819.6,844.8,842.4z"/>
</g>
<g>
	<path class="st0" d="M240.7-0.4c-3.8,6.1-3.3,13.7,1.1,19.4c3.3,4.2,8.2,6.5,13.2,6.5c1.9,0,3.8-0.3,5.6-0.9l55-18.9
		c14.7,5.9,30.4,10.1,46.7,12.6c39.2,5.9,77.7,0.8,108.5-14.2c2.9-1.4,5.7-2.9,8.4-4.5H240.7z"/>
</g>
<g>
	<path class="st0" d="M523.9,167.9c-1.8-29-19.5-54.9-49.8-73c-28.9-17.3-66.1-25.4-104.9-23C330.4,74.4,294.5,87.2,268,108
		c-27.7,21.8-42,49.8-40.2,78.8c1.8,27.5,18.3,52.8,46,70.6L262,289.5c-2.5,6.8-0.5,14.2,5.1,18.8c3.1,2.6,6.9,3.9,10.7,3.9
		c3,0,6-0.8,8.8-2.5l48.7-29.4c15.3,2.6,31.2,3.4,47.3,2.4c38.8-2.5,74.7-15.3,101.2-36.1C511.5,224.9,525.8,196.9,523.9,167.9z
		 M469.4,228.4c-22.8,17.9-54.1,29-88.2,31.1c-15.7,1-31.1,0-45.8-2.8c-2.8-0.5-5.8,0-8.3,1.5l-36.8,22.2l8.8-24
		c2-5.4-0.3-11.5-5.4-14.3c-25.6-14-41.1-34.7-42.5-56.8c-1.3-21.1,9.8-42,31.3-58.9c22.8-17.9,54.1-29,88.2-31.1
		c4.1-0.3,8.1-0.4,12.1-0.4c29.6,0,57.4,7,79.4,20.1c23.5,14,37.2,33.4,38.5,54.5C502,190.5,490.9,211.5,469.4,228.4z"/>
</g>
<g>
	<path class="st0" d="M483.5,390.1c-22.2-21.5-53.9-36.6-89.1-42.5c-35.2-5.9-70-1.9-98,11.1c-29.5,13.8-48.2,35.9-52.6,62.4
		c-4.2,24.9,5.2,50.9,25.9,72.6L253,519.3c-3.9,5.9-3.6,13.4,0.7,19c3.2,4.2,8,6.5,13,6.5c1.7,0,3.5-0.3,5.2-0.8l49-15.9
		c13,5.5,27,9.4,41.4,11.9c35.2,5.9,70,1.9,98-11.1c29.5-13.8,48.2-35.9,52.6-62.4C517.3,439.8,506.9,412.7,483.5,390.1z
		 M489.9,462.4c-3.1,18.7-17.1,34.7-39.5,45.1c-23.8,11.1-53.7,14.4-84.3,9.3c-14-2.4-27.5-6.4-39.9-11.9c-1.5-0.7-3.1-1-4.8-1
		c-1.2,0-2.4,0.2-3.6,0.6l-34.6,11.2l11.2-17.1c3.2-4.8,2.3-11.3-2-15.1c-19.6-17.5-29-38.8-25.7-58.4c3.1-18.7,17.2-34.7,39.5-45.1
		c23.8-11.1,53.7-14.4,84.3-9.3c30.6,5.1,57.8,18,76.7,36.2C485,424,493,443.7,489.9,462.4z"/>
</g>
<g>
	<path class="st0" d="M524.6,699.8c-1.6-29.1-19.1-55.3-49.3-73.7c-25.9-15.8-58.7-24.3-93.4-24.3c-3.9,0-7.8,0.1-11.7,0.3
		c-38.9,2.1-75.1,14.7-101.8,35.3c-28,21.6-42.6,49.6-41,78.7c1.5,27.6,18,53.2,45.5,71.3l-12.1,32.2c-2.6,6.8-0.6,14.2,5,18.9
		c3.2,2.6,7,4,10.8,4c3,0,5.9-0.8,8.6-2.4l49.2-29.1c15.4,2.7,31.3,3.7,47.4,2.8c38.9-2.1,75.1-14.7,101.9-35.3
		C511.7,756.8,526.2,728.9,524.6,699.8z M469.4,760c-23.1,17.8-54.6,28.6-88.9,30.5c-15.7,0.9-31.2-0.2-46-3.2
		c-2.8-0.6-5.8-0.1-8.3,1.4l-37.2,22l9.1-24.1c2-5.4-0.2-11.5-5.2-14.3c-25.6-14.3-41-35.2-42.2-57.4c-1.2-21.2,10.2-42.1,32-58.9
		c23.1-17.8,54.6-28.6,88.9-30.5c34.3-1.9,66.8,5.4,91.7,20.6c23.5,14.3,37,33.9,38.2,55.1C502.5,722.3,491.1,743.2,469.4,760z"/>
</g>
<g>
	<path class="st0" d="M483,944.4c-12.5-10.3-27.3-18.8-43.6-25.1c-16.3-6.3-34.2-10.4-52.8-12c-37.2-3.3-73.3,3.7-101.5,19.6
		c-29.6,16.7-47.3,41.3-49.8,69.3c-2.3,26.4,9.7,52.8,33.2,73.8l-15.6,28.5c-3.5,6.3-2.6,13.8,2.2,19.1c3.3,3.7,7.7,5.6,12.3,5.6
		c2.1,0,4.3-0.4,6.5-1.3l50.3-20.8c14.2,4.7,29.1,7.7,44.5,9.1c37.2,3.3,73.3-3.7,101.5-19.6c29.6-16.7,47.3-41.3,49.8-69.3
		C522.3,993.4,509.2,966.1,483,944.4z M496.6,1019.3c-1.8,20.1-15.3,38.2-38,51c-24.1,13.6-55.4,19.6-88,16.7
		c-15-1.3-29.4-4.5-42.9-9.3c-2.7-1-5.7-0.9-8.4,0.2l-36.9,15.2l11.2-20.3c2.8-5.1,1.4-11.4-3.2-14.9
		c-22.2-16.9-33.8-38.6-31.9-59.6c1.8-20.1,15.3-38.2,38-51c20.1-11.4,45.2-17.4,71.9-17.4c5.3,0,10.6,0.2,16,0.7
		c32.6,2.9,62.3,14.2,83.7,31.9C488.3,979,498.4,999.2,496.6,1019.3z"/>
</g>
<g>
	<path class="st0" d="M960.5-0.4l-3.4,7.2c-3.1,6.4-1.8,13.8,3.3,18.8c3.2,3.2,7.3,4.8,11.6,4.8c2.4,0,4.9-0.6,7.3-1.7l47.5-23
		c14,3.7,28.6,5.8,43.6,6.2c26.2,0.8,51.4-3.6,73.4-12.5H960.5z"/>
</g>
<g>
	<path class="st0" d="M1231.8,154.3c-4.3-31.3-25.6-58-59.9-75.3c-24.7-12.4-54.1-18.9-85.1-18.9c-10.3,0-20.8,0.7-31.3,2.2
		c-42.1,5.8-80.3,22.6-107.5,47.4c-28.4,25.9-41.7,57.4-37.4,88.6c4.1,29.9,24.4,56.3,56.3,73.4l-10.6,37.1
		c-2.1,7.2,0.6,14.7,6.7,19c3.1,2.2,6.6,3.3,10.1,3.3c3.5,0,7-1.1,10.1-3.3l51.4-36.4c17.1,1.7,34.6,1.3,52.3-1.1
		c42.1-5.8,80.3-22.6,107.5-47.4C1222.8,217.1,1236.1,185.6,1231.8,154.3z M1178.7,225.7c-23.8,21.6-57.5,36.4-95,41.5
		c-17.2,2.4-34.3,2.6-50.8,0.6c-2.9-0.4-5.8,0.4-8.1,2.1l-41.3,29.2l8.6-30.3c1.6-5.6-1.1-11.4-6.4-13.8
		c-29.6-13.5-48.6-35.3-51.9-59.9c-3.2-23.5,7.5-47.7,30-68.2c23.8-21.6,57.5-36.4,95-41.5c37.5-5.1,74,0,102.7,14.4
		c27.3,13.7,44.1,34.2,47.3,57.6C1211.9,180.9,1201.3,205.1,1178.7,225.7z"/>
</g>
<g>
	<path class="st0" d="M1213,425.5c-3.5-27.8-22-51.6-52.1-67.3c-22.2-11.5-48.8-17.5-76.8-17.5c-8.3,0-16.6,0.5-25.1,1.6
		c-37,4.6-70.7,19-94.8,40.5c-25.4,22.5-37.4,50.2-34,78c3.3,26.2,20.6,49.5,47.9,65l-9.3,31c-2,6.9,0.4,14,6.2,18.2
		c3,2.1,6.4,3.2,9.8,3.2c3.3,0,6.6-1,9.5-3l44.6-30.8c14.8,1.6,30,1.4,45.2-0.5c37-4.6,70.7-19,94.8-40.5
		C1204.4,481,1216.4,453.3,1213,425.5z M1163.5,486.1c-20.7,18.4-49.9,30.7-82.2,34.7c-14.9,1.9-29.6,1.9-43.8,0
		c-2.9-0.4-5.8,0.3-8.1,2l-32.7,22.5l6.6-22.1c1.7-5.5-1-11.4-6.2-13.9c-25.1-11.8-41.1-30.5-43.7-51.4
		c-2.5-19.9,6.8-40.4,26.3-57.7c20.7-18.4,49.9-30.7,82.2-34.7c32.3-4,63.7,0.7,88.2,13.4c23.1,12,37.2,29.5,39.7,49.4
		C1192.3,448.3,1182.9,468.8,1163.5,486.1z"/>
</g>
<g>
	<path class="st0" d="M1230.4,683.3c-4.6-31-26.1-57.4-60.4-74.2c-32.9-16.1-74-21.5-115.8-15.2c-41.8,6.2-79.5,23.4-106.3,48.3
		c-28,26-40.8,57.5-36.2,88.5c4.4,29.7,24.9,55.6,56.8,72.3L958.5,840c-2,7.2,0.7,14.6,6.9,18.9c3,2.1,6.5,3.1,9.9,3.1
		c3.6,0,7.1-1.1,10.2-3.4l50.6-36.7c17,1.5,34.4,0.9,51.9-1.7c41.8-6.2,79.5-23.4,106.3-48.3C1222.2,745.8,1235,714.3,1230.4,683.3z
		 M1178.3,754.7c-23.3,21.8-56.7,36.8-93.8,42.3c-17.1,2.5-34,2.9-50.4,1.2c-2.9-0.3-5.8,0.5-8.1,2.2l-40.5,29.4l8.2-29.9
		c1.5-5.6-1.3-11.4-6.5-13.7c-29.6-13-48.6-34.4-52.2-58.8c-3.5-23.2,6.8-47.4,29-68c23.3-21.8,56.7-36.8,93.8-42.3
		c10.2-1.5,20.3-2.3,30.2-2.3c26.2,0,51,5.2,71.8,15.4c27.2,13.3,44.1,33.4,47.6,56.6C1210.8,709.9,1200.5,734.1,1178.3,754.7z"/>
</g>
<g>
	<path class="st0" d="M1175.7,932.9c-27.5-19-63.9-29.5-102.5-29.6h-0.4c-38.4,0-74.7,10.4-102.2,29.2
		c-28.9,19.8-44.9,46.6-44.9,75.5c0,27.4,14.7,53.5,40.9,73l-13.7,31c-2.9,6.6-1.4,14.1,3.9,19.1c3.2,3,7.3,4.6,11.5,4.6
		c2.6,0,5.3-0.6,7.8-1.9l50.1-26c15,3.6,30.7,5.4,46.7,5.4h0.4c38.4,0,74.7-10.4,102.2-29.2c28.9-19.8,44.9-46.6,44.9-75.5
		C1220.4,979.7,1204.5,952.8,1175.7,932.9z M1162.2,1064.8c-23.7,16.2-55.3,25.1-89.1,25.1h-0.4c-15.6,0-30.8-2-45.2-5.8
		c-2.8-0.7-5.8-0.4-8.3,0.9l-37.7,19.5l10.2-23c2.3-5.3,0.5-11.5-4.4-14.6c-24.5-15.5-38.5-37-38.4-59c0-21,12.4-41,34.8-56.3
		c23.7-16.2,55.3-25.1,89.1-25.1h0.3c33.9,0.1,65.6,9.1,89.3,25.4c22.3,15.4,34.6,35.5,34.6,56.4
		C1197,1029.5,1184.6,1049.5,1162.2,1064.8z"/>
</g>
<g>
	<path class="st0" d="M1333.5,85.7c-18.4-16.7-27.1-36.3-24.6-55.2c1.5-11.3,7-21.8,15.9-30.8h-29.4c-5.1,8.6-8.4,17.9-9.7,27.7
		c-3.6,26.8,7.8,53.6,32,75.6c21.2,19.2,50.2,32.7,82.5,38.5v-23.7C1374,112.4,1350.6,101.2,1333.5,85.7z"/>
</g>
<g>
	<path class="st0" d="M1326.9,241.5c20.6-12.5,46-20.1,73.4-22v-23.4c-31.7,2-61.3,10.8-85.5,25.4c-32.3,19.6-51.1,47.6-52.8,78.6
		c-1.7,31,13.8,60.9,43.7,84c25.3,19.5,58.4,32.3,94.6,36.7v-23.5c-30.9-4.1-59-15.1-80.3-31.6c-23.6-18.3-36-41.1-34.7-64.2
		C1286.6,278.4,1301.4,257.1,1326.9,241.5z"/>
</g>
<g>
	<path class="st0" d="M1334.1,519.5c18.2-12.2,41.2-19.9,66.2-22.5v-23.4c-29.6,2.7-57.2,11.9-79.1,26.5
		c-28.6,19.1-44.5,45.2-44.9,73.5c-0.4,28.3,14.9,54.9,42.9,74.7c22.2,15.7,50.5,25.8,81.1,29v-23.5c-25.7-3.1-49.3-11.5-67.7-24.6
		c-21.6-15.3-33.3-34.9-33.1-55.3C1299.9,553.6,1312.1,534.2,1334.1,519.5z"/>
</g>
<g>
	<path class="st0" d="M1333.9,796c19.4-9.2,42.2-14.2,66.4-14.7V758c-27.6,0.5-53.9,6.3-76.4,16.9c-34.7,16.5-56.6,42.8-61.6,74
		c-5,31.2,7.6,63,35.4,89.5c25.8,24.6,62.2,42,102.6,49.2v-23.8c-34.3-6.8-64.8-21.7-86.5-42.4c-22.1-21.1-32.2-45.6-28.5-68.9
		C1289.1,829.2,1306.3,809.1,1333.9,796z"/>
</g>
<g>
	<path class="st0" d="M1320.3,1136.5c19.6-17.4,47.3-29.1,78-33c0.7-0.1,1.3-0.2,2-0.2v-23.5c-1.6,0.2-3.3,0.3-4.9,0.5
		c-35.3,4.4-67.5,18.2-90.6,38.7c-24.3,21.6-35.9,48.2-32.5,74.8c3.3,26.6,21.1,49.5,49.9,64.5c22.4,11.6,49.6,17.3,78.1,16.6v-23.3
		c-24.8,0.7-48.3-4.1-67.4-14c-21.9-11.3-35.2-27.9-37.5-46.7C1293.1,1172.2,1301.9,1152.8,1320.3,1136.5z"/>
</g>
<g>
	<path class="st0" d="M125.8,1388.4c-11.5-10.4-25.4-19.2-40.8-26c-15.4-6.7-32.4-11.5-50.1-13.9c-11.7-1.6-23.3-2.1-34.6-1.6v23.4
		c10.2-0.5,20.8-0.1,31.5,1.3c27.3,3.7,52.1,13.5,71,27.9h33.9C133.5,1395.8,129.8,1392,125.8,1388.4z"/>
</g>
<g>
	<path class="st0" d="M823,1362.6c-29.8-20.8-69.4-32.3-111.3-32.5c-42-0.3-81.6,10.9-111.7,31.3c-16.2,11-28.6,24-36.9,38.3h28.6
		c5.8-6.8,13-13.2,21.5-19c25.9-17.6,60.4-27.3,97.3-27.3h1.2c37.3,0.2,72.1,10.3,98.2,28.4c7.9,5.5,14.7,11.5,20.2,17.9h28.7
		C850.4,1385.9,838.4,1373.3,823,1362.6z"/>
</g>
<g>
	<path class="st0" d="M493.9,1251c-25.1-23.4-60.4-39.5-99.6-45.4c-39.2-5.9-77.7-0.8-108.5,14.2c-32.3,15.7-52.5,40.5-56.9,69.7
		c-4.2,27.8,7,56.6,30.7,80.3l-18.7,29.7c0,0.1-0.1,0.1-0.1,0.2h238.6c27.4-15.8,44.5-38.7,48.5-65.3
		C532.2,1305.1,520.1,1275.5,493.9,1251z M504.7,1330.9c-3.2,21.4-18.9,40-44,52.2c-26.6,13-60.3,17.3-94.9,12.1
		c-15.9-2.4-31-6.7-45.2-12.7c-1.5-0.6-3-0.9-4.6-0.9c-1.3,0-2.6,0.2-3.8,0.6l-42.1,14.5l14.3-22.6c3.1-4.9,2.1-11.3-2.2-15.1
		c-22.6-19.5-33.7-43.6-30.3-66c3.2-21.4,18.9-40,44-52.2c26.6-13,60.3-17.3,94.8-12.1c34.5,5.2,65.5,19.2,87.1,39.4
		C498.4,1287.2,507.9,1309.5,504.7,1330.9z"/>
</g>
<g>
	<path class="st0" d="M1172.1,1244c-25.5-18.6-59.6-29.5-95.9-30.5c-36.4-1.1-71,7.8-97.6,24.9c-27.9,18-43.7,43-44.5,70.3
		c-0.8,25.8,12.4,50.8,36.4,69.8l-10,21h183.2c8.6-3.5,16.7-7.6,24.1-12.4c27.9-18,43.7-43,44.5-70.3
		C1213.2,1289.5,1198.9,1263.6,1172.1,1244z M1189.1,1316.1c-0.6,19.5-12.6,37.7-33.8,51.4c-22.6,14.6-52.5,22.1-84.2,21.2
		c-14.6-0.4-28.7-2.6-42.1-6.5c-2.8-0.8-5.8-0.6-8.4,0.7l-34.1,16.5l9.3-19.5c2.5-5.2,0.8-11.5-4-14.7c-22.4-15-34.9-35.4-34.3-55.8
		c0.6-19.4,12.6-37.7,33.8-51.4c21.4-13.8,49.2-21.3,79-21.3c1.7,0,3.5,0,5.2,0.1c31.7,0.9,61.1,10.2,82.9,26.1
		C1178.7,1277.8,1189.6,1296.7,1189.1,1316.1z"/>
</g>
<g>
	<path class="st0" d="M1336.7,1362.9c-18.5,9.4-32.5,21.9-41.2,36.7h29.4c6-6,13.5-11.4,22.4-15.9c15.4-7.8,33.6-12.3,53-13.4V1347
		C1377.2,1348.1,1355.4,1353.5,1336.7,1362.9z"/>
</g>
</svg>
